<mxfile host="app.diagrams.net" modified="2021-03-16T14:29:39.131Z" agent="5.0 (Windows NT 10.0; Win64; x64) AppleWebKit/537.36 (KHTML, like Gecko) Chrome/89.0.4389.82 Safari/537.36" etag="okYXD4xCjG9AkVURHiEW" version="14.4.8" type="github">
  <diagram id="YlWgNAwH1TdZY_ML43Tv" name="第 1 页">
    <mxGraphModel dx="1865" dy="548" grid="1" gridSize="10" guides="1" tooltips="1" connect="1" arrows="1" fold="1" page="1" pageScale="1" pageWidth="827" pageHeight="1169" math="0" shadow="0">
      <root>
        <mxCell id="0" />
        <mxCell id="1" parent="0" />
        <mxCell id="W7F7GFE-B0lri0et1CsU-3" value="" style="rounded=1;whiteSpace=wrap;html=1;" vertex="1" parent="1">
          <mxGeometry x="-60" y="170" width="227.5" height="42" as="geometry" />
        </mxCell>
        <mxCell id="W7F7GFE-B0lri0et1CsU-4" value="" style="edgeStyle=orthogonalEdgeStyle;rounded=0;orthogonalLoop=1;jettySize=auto;html=1;fontSize=29;" edge="1" parent="1">
          <mxGeometry relative="1" as="geometry">
            <mxPoint x="180" y="190" as="sourcePoint" />
            <mxPoint x="380" y="190" as="targetPoint" />
          </mxGeometry>
        </mxCell>
        <mxCell id="W7F7GFE-B0lri0et1CsU-5" value="&lt;font style=&quot;font-size: 16px&quot;&gt;变异性哮喘哮喘可以治愈吗&lt;/font&gt;" style="text;html=1;resizable=0;autosize=1;align=center;verticalAlign=middle;points=[];rounded=0;fontSize=16;" vertex="1" parent="1">
          <mxGeometry x="-51.25" y="181" width="210" height="20" as="geometry" />
        </mxCell>
        <mxCell id="W7F7GFE-B0lri0et1CsU-6" value="Orginal Sentences" style="text;html=1;align=center;verticalAlign=middle;resizable=0;points=[];autosize=1;fontSize=19;" vertex="1" parent="1">
          <mxGeometry x="-40" y="120" width="170" height="30" as="geometry" />
        </mxCell>
        <mxCell id="W7F7GFE-B0lri0et1CsU-7" value="augmented technologies" style="text;html=1;align=center;verticalAlign=middle;resizable=0;points=[];autosize=1;fontSize=16;" vertex="1" parent="1">
          <mxGeometry x="180" y="165.5" width="190" height="20" as="geometry" />
        </mxCell>
        <mxCell id="W7F7GFE-B0lri0et1CsU-8" value="Augmented Sentences" style="text;html=1;align=center;verticalAlign=middle;resizable=0;points=[];autosize=1;fontSize=19;" vertex="1" parent="1">
          <mxGeometry x="438.88" y="10" width="210" height="30" as="geometry" />
        </mxCell>
        <mxCell id="W7F7GFE-B0lri0et1CsU-9" value="" style="rounded=0;whiteSpace=wrap;html=1;sketch=0;" vertex="1" parent="1">
          <mxGeometry x="396" y="50" width="504" height="330" as="geometry" />
        </mxCell>
        <mxCell id="W7F7GFE-B0lri0et1CsU-16" value="..." style="text;html=1;align=center;verticalAlign=middle;resizable=0;points=[];autosize=1;fontSize=34;" vertex="1" parent="1">
          <mxGeometry x="523.88" y="261" width="40" height="50" as="geometry" />
        </mxCell>
        <mxCell id="W7F7GFE-B0lri0et1CsU-18" value="" style="rounded=1;whiteSpace=wrap;html=1;" vertex="1" parent="1">
          <mxGeometry x="430.13" y="230" width="227.5" height="42" as="geometry" />
        </mxCell>
        <mxCell id="W7F7GFE-B0lri0et1CsU-19" value="&lt;font style=&quot;font-size: 16px&quot;&gt;变异性哮喘可以恢复正常吗&lt;/font&gt;" style="text;html=1;resizable=0;autosize=1;align=center;verticalAlign=middle;points=[];rounded=0;fontSize=16;" vertex="1" parent="1">
          <mxGeometry x="438.88" y="241" width="210" height="20" as="geometry" />
        </mxCell>
        <mxCell id="W7F7GFE-B0lri0et1CsU-22" value="" style="rounded=1;whiteSpace=wrap;html=1;" vertex="1" parent="1">
          <mxGeometry x="430.13" y="78" width="227.5" height="42" as="geometry" />
        </mxCell>
        <mxCell id="W7F7GFE-B0lri0et1CsU-23" value="&lt;font style=&quot;font-size: 16px&quot;&gt;吗哮喘可以治愈变异性&lt;/font&gt;" style="text;html=1;resizable=0;autosize=1;align=center;verticalAlign=middle;points=[];rounded=0;fontSize=16;" vertex="1" parent="1">
          <mxGeometry x="453.88" y="89" width="180" height="20" as="geometry" />
        </mxCell>
        <mxCell id="W7F7GFE-B0lri0et1CsU-25" value="Type" style="text;html=1;align=center;verticalAlign=middle;resizable=0;points=[];autosize=1;fontSize=19;" vertex="1" parent="1">
          <mxGeometry x="785" y="10" width="60" height="30" as="geometry" />
        </mxCell>
        <mxCell id="W7F7GFE-B0lri0et1CsU-26" value="high evidence" style="rounded=0;whiteSpace=wrap;html=1;fontSize=16;" vertex="1" parent="1">
          <mxGeometry x="755" y="154.5" width="120" height="42" as="geometry" />
        </mxCell>
        <mxCell id="W7F7GFE-B0lri0et1CsU-27" value="noise" style="rounded=0;whiteSpace=wrap;html=1;fontSize=16;" vertex="1" parent="1">
          <mxGeometry x="755" y="78" width="120" height="42" as="geometry" />
        </mxCell>
        <mxCell id="W7F7GFE-B0lri0et1CsU-28" value="low evidence" style="rounded=0;whiteSpace=wrap;html=1;fontSize=16;" vertex="1" parent="1">
          <mxGeometry x="753" y="317" width="120" height="42" as="geometry" />
        </mxCell>
        <mxCell id="W7F7GFE-B0lri0et1CsU-29" value="" style="rounded=1;whiteSpace=wrap;html=1;" vertex="1" parent="1">
          <mxGeometry x="430.13" y="154.5" width="227.5" height="42" as="geometry" />
        </mxCell>
        <mxCell id="W7F7GFE-B0lri0et1CsU-30" value="哮喘可以治愈吗" style="text;html=1;resizable=0;autosize=1;align=center;verticalAlign=middle;points=[];rounded=0;fontSize=16;" vertex="1" parent="1">
          <mxGeometry x="478.88" y="165.5" width="130" height="20" as="geometry" />
        </mxCell>
        <mxCell id="W7F7GFE-B0lri0et1CsU-32" value="" style="rounded=1;whiteSpace=wrap;html=1;" vertex="1" parent="1">
          <mxGeometry x="430.13" y="317" width="227.5" height="42" as="geometry" />
        </mxCell>
        <mxCell id="W7F7GFE-B0lri0et1CsU-33" value="变异性可以治愈吗" style="text;html=1;resizable=0;autosize=1;align=center;verticalAlign=middle;points=[];rounded=0;fontSize=16;" vertex="1" parent="1">
          <mxGeometry x="473.88" y="328" width="140" height="20" as="geometry" />
        </mxCell>
        <mxCell id="W7F7GFE-B0lri0et1CsU-34" value="high evidence" style="rounded=0;whiteSpace=wrap;html=1;fontSize=16;" vertex="1" parent="1">
          <mxGeometry x="753" y="230" width="120" height="42" as="geometry" />
        </mxCell>
        <mxCell id="W7F7GFE-B0lri0et1CsU-41" value="" style="endArrow=classic;html=1;fontSize=16;" edge="1" parent="1">
          <mxGeometry width="50" height="50" relative="1" as="geometry">
            <mxPoint x="680" y="98.5" as="sourcePoint" />
            <mxPoint x="740" y="98.5" as="targetPoint" />
          </mxGeometry>
        </mxCell>
        <mxCell id="W7F7GFE-B0lri0et1CsU-42" value="" style="endArrow=classic;html=1;fontSize=16;" edge="1" parent="1">
          <mxGeometry width="50" height="50" relative="1" as="geometry">
            <mxPoint x="680" y="175" as="sourcePoint" />
            <mxPoint x="740" y="175" as="targetPoint" />
          </mxGeometry>
        </mxCell>
        <mxCell id="W7F7GFE-B0lri0et1CsU-43" value="" style="endArrow=classic;html=1;fontSize=16;" edge="1" parent="1">
          <mxGeometry width="50" height="50" relative="1" as="geometry">
            <mxPoint x="680" y="250.5" as="sourcePoint" />
            <mxPoint x="740" y="250.5" as="targetPoint" />
          </mxGeometry>
        </mxCell>
        <mxCell id="W7F7GFE-B0lri0et1CsU-44" value="" style="endArrow=classic;html=1;fontSize=16;" edge="1" parent="1">
          <mxGeometry width="50" height="50" relative="1" as="geometry">
            <mxPoint x="680" y="337.5" as="sourcePoint" />
            <mxPoint x="740" y="337.5" as="targetPoint" />
          </mxGeometry>
        </mxCell>
      </root>
    </mxGraphModel>
  </diagram>
</mxfile>
